HIERARCHY
ROOT joint_Root
{
	OFFSET 0.0 0.0 0.0
	CHANNELS 6 Xposition Yposition Zposition Zrotation Xrotation Yrotation 
	JOINT Hips
	{
		OFFSET 4.5925 91.4895 -427.239
		CHANNELS 6 Xposition Yposition Zposition Zrotation Xrotation Yrotation 
		JOINT Spine
		{
			OFFSET 15.7357 0.0 0.0
			CHANNELS 6 Xposition Yposition Zposition Zrotation Xrotation Yrotation 
			JOINT Chest
			{
				OFFSET 8.98455 -0.406207 0.0
				CHANNELS 6 Xposition Yposition Zposition Zrotation Xrotation Yrotation 
				JOINT Neck
				{
					OFFSET 16.3773 0.0 0.0
					CHANNELS 6 Xposition Yposition Zposition Zrotation Xrotation Yrotation 
					JOINT Head
					{
						OFFSET 6.45672 0.0 0.0
						CHANNELS 6 Xposition Yposition Zposition Zrotation Xrotation Yrotation 
						End Site
						{
							OFFSET 0.0 0.0 0.0
						}
					}
				}
				JOINT Shoulder_L
				{
					OFFSET 12.9942 -0.242716 4.98039
					CHANNELS 6 Xposition Yposition Zposition Zrotation Xrotation Yrotation 
					JOINT UpperArm_L
					{
						OFFSET 5.34809 0.0 0.0
						CHANNELS 6 Xposition Yposition Zposition Zrotation Xrotation Yrotation 
						JOINT LowerArm_L
						{
							OFFSET 24.3286 1.87007e-05 0.0
							CHANNELS 6 Xposition Yposition Zposition Zrotation Xrotation Yrotation 
							JOINT Hand_L
							{
								OFFSET 22.2916 0.0 0.0
								CHANNELS 6 Xposition Yposition Zposition Zrotation Xrotation Yrotation 
								End Site
								{
									OFFSET 0.0 0.0 0.0
								}
							}
						}
					}
				}
				JOINT Shoulder_R
				{
					OFFSET 12.9945 -0.242716 -4.98039
					CHANNELS 6 Xposition Yposition Zposition Zrotation Xrotation Yrotation 
					JOINT UpperArm_R
					{
						OFFSET -5.34813 0.0 0.0
						CHANNELS 6 Xposition Yposition Zposition Zrotation Xrotation Yrotation 
						JOINT LowerArm_R
						{
							OFFSET -24.3289 0.000322201 0.0
							CHANNELS 6 Xposition Yposition Zposition Zrotation Xrotation Yrotation 
							JOINT Hand_R
							{
								OFFSET -22.2915 -0.000108084 0.0
								CHANNELS 6 Xposition Yposition Zposition Zrotation Xrotation Yrotation 
								End Site
								{
									OFFSET 0.0 0.0 0.0
								}
							}
						}
					}
				}
			}
		}
		JOINT UpperLeg_L
		{
			OFFSET -2.19248 -6.46944 0.0
			CHANNELS 6 Xposition Yposition Zposition Zrotation Xrotation Yrotation 
			JOINT LowerLeg_L
			{
				OFFSET 39.0811 0.0 -1.23785e-05
				CHANNELS 6 Xposition Yposition Zposition Zrotation Xrotation Yrotation 
				JOINT Foot_L
				{
					OFFSET 40.9854 0.0 -1.26872e-05
					CHANNELS 6 Xposition Yposition Zposition Zrotation Xrotation Yrotation 
					JOINT Toes_L
					{
						OFFSET 11.7543 0.0 0.0
						CHANNELS 6 Xposition Yposition Zposition Zrotation Xrotation Yrotation 
						End Site
						{
							OFFSET 0.0 0.0 0.0
						}
					}
				}
			}
		}
		JOINT UpperLeg_R
		{
			OFFSET -2.19251 6.46944 0.0
			CHANNELS 6 Xposition Yposition Zposition Zrotation Xrotation Yrotation 
			JOINT LowerLeg_R
			{
				OFFSET -39.0811 -0.00228153 -0.0401928
				CHANNELS 6 Xposition Yposition Zposition Zrotation Xrotation Yrotation 
				JOINT Foot_R
				{
					OFFSET -40.9854 0.0 0.0
					CHANNELS 6 Xposition Yposition Zposition Zrotation Xrotation Yrotation 
					JOINT Toes_R
					{
						OFFSET -11.7543 0.0 0.0
						CHANNELS 6 Xposition Yposition Zposition Zrotation Xrotation Yrotation 
						End Site
						{
							OFFSET 0.0 0.0 0.0
						}
					}
				}
			}
		}
	}
}
MOTION
Frames:	4
Frame Time:	0.0333333
0.000000 0.000000 0.000000 0.000000 0.000000 -0.000000 -0.962785 86.441800 -1.677550 89.084200 -2.292840 9.050740 15.735700 0.000005 -0.000001 87.623800 81.484200 -87.507700 8.984550 -0.406207 -0.000000 9.252150 -0.700743 0.288829 16.377300 -0.000001 -0.000001 -1.152040 -3.050620 1.126980 6.456720 -0.000001 -0.000000 -6.464920 -2.627540 1.775690 12.994200 -0.242716 4.980390 -90.999600 3.198930 -72.636100 5.348090 -0.000007 -0.000001 -63.827700 16.820600 -19.189800 24.328600 0.000019 0.000005 6.363850 16.329200 -21.636300 22.291600 -0.000001 0.000005 13.613700 5.118590 4.693380 12.994500 -0.242716 -4.980390 88.524300 8.038690 -79.560600 -5.348130 -0.000001 -0.000004 -63.083500 10.290500 -16.399600 -24.328900 0.000322 -0.000009 -3.652430 -13.922900 -14.848100 -22.291500 -0.000108 -0.000004 15.018000 5.321040 -0.510477 -2.192480 -6.469440 -0.000000 -174.142000 -12.238500 -12.022400 39.081100 -0.000007 -0.000012 -0.381152 0.323340 49.692200 40.985400 -0.000006 -0.000013 0.875744 5.439240 -78.357800 11.754300 -0.000000 0.000003 -0.000328 -0.002804 -16.681700 -2.192510 6.469440 -0.000001 177.968000 13.303800 167.953000 -39.081100 -0.002282 -0.040193 0.060456 -0.048434 49.747700 -40.985400 0.000008 0.000006 7.151490 5.241290 -78.875000 -11.754300 -0.000006 -0.000006 -0.250449 -0.308623 -16.868800
0.000000 0.000000 0.000000 0.000000 0.000000 -0.000000 -0.968860 87.509900 -0.878464 89.160600 -1.649090 9.231070 15.735700 0.000005 -0.000001 86.876400 82.195600 -86.833200 8.984550 -0.406207 -0.000000 7.820510 -0.846991 0.144281 16.377300 -0.000001 -0.000001 -0.012743 -3.011250 1.166380 6.456720 -0.000001 -0.000000 -5.426340 -2.341450 1.920060 12.994200 -0.242716 4.980390 -90.597700 1.832400 -71.926700 5.348090 -0.000007 -0.000001 -61.638200 2.254850 -20.233400 24.328600 0.000019 0.000005 5.038990 15.487100 -18.272900 22.291600 -0.000001 0.000005 11.467100 5.072890 5.724730 12.994500 -0.242716 -4.980390 88.676300 6.427640 -78.335200 -5.348130 -0.000001 -0.000004 -59.616000 -2.565900 -17.784300 -24.328900 0.000322 -0.000009 -1.484550 -11.428300 -7.437820 -22.291500 -0.000108 -0.000004 11.371300 5.229730 1.967600 -2.192480 -6.469440 -0.000000 -174.380000 -11.016300 -9.341550 39.081100 -0.000007 -0.000012 -0.345508 0.337288 45.690500 40.985400 -0.000006 -0.000013 0.459866 4.980030 -76.929500 11.754300 -0.000000 0.000003 -0.000297 -0.002577 -16.673600 -2.192510 6.469440 -0.000001 177.681000 13.421300 170.719000 -39.081100 -0.002282 -0.040193 0.053772 -0.048935 45.907700 -40.985400 0.000008 0.000006 6.637740 5.143990 -77.318700 -11.754300 -0.000006 -0.000006 -0.333353 -0.410886 -17.027600
0.000000 0.000000 0.000000 0.000000 0.000000 -0.000000 -0.999569 88.885900 -0.201979 89.449700 -1.465140 8.494910 15.735700 0.000005 -0.000001 85.448300 83.346600 -85.623400 8.984550 -0.406207 -0.000000 5.497980 -1.050070 -0.299249 16.377300 -0.000001 -0.000001 1.729080 -2.718470 1.234450 6.456720 -0.000001 -0.000000 -4.696790 -1.956080 2.089300 12.994200 -0.242716 4.980390 -90.084300 0.248381 -71.225100 5.348090 -0.000007 -0.000001 -54.462900 -11.034100 -23.354300 24.328600 0.000019 0.000005 4.254190 15.562600 -15.495700 22.291600 -0.000001 0.000005 14.400000 4.988180 7.558920 12.994500 -0.242716 -4.980390 88.958200 4.591130 -77.198200 -5.348130 -0.000001 -0.000004 -54.842100 -19.078300 -21.386900 -24.328900 0.000322 -0.000009 -0.525264 -8.963240 -3.360770 -22.291500 -0.000108 -0.000004 13.098000 5.149620 3.941810 -2.192480 -6.469440 -0.000000 -174.984000 -10.169400 -6.829310 39.081100 -0.000007 -0.000012 -0.294188 0.350555 40.004200 40.985400 -0.000006 -0.000013 -0.050774 4.345630 -74.545100 11.754300 -0.000000 0.000003 -0.000228 -0.002068 -16.655300 -2.192510 6.469440 -0.000001 177.635000 12.771300 173.027000 -39.081100 -0.002282 -0.040193 0.045361 -0.048966 40.677900 -40.985400 0.000008 0.000006 6.166990 4.755620 -74.873200 -11.754300 -0.000006 -0.000006 -0.193014 -0.246488 -17.389900
0.000000 0.000000 0.000000 0.000000 0.000000 -0.000000 -0.941413 89.940400 0.144451 89.493400 -1.434050 6.735760 15.735700 0.000005 -0.000001 82.976300 84.795600 -83.217800 8.984550 -0.406207 -0.000000 2.562690 -1.260770 -0.454337 16.377300 -0.000001 -0.000001 3.308890 -2.553740 1.234880 6.456720 -0.000001 -0.000000 -4.276340 -1.573610 2.081810 12.994200 -0.242716 4.980390 -89.498400 -1.425390 -70.615800 5.348090 -0.000007 -0.000001 -46.438200 -25.637200 -27.815700 24.328600 0.000019 0.000005 3.685420 13.705500 -15.209000 22.291600 -0.000001 0.000005 15.467800 4.964480 8.066940 12.994500 -0.242716 -4.980390 89.331200 2.721500 -76.185600 -5.348130 -0.000001 -0.000004 -47.145200 -31.044800 -27.261400 -24.328900 0.000322 -0.000009 -0.713993 -13.389500 -3.072850 -22.291500 -0.000108 -0.000004 14.952500 5.148260 3.985320 -2.192480 -6.469440 -0.000000 -175.540000 -9.642500 -6.027570 39.081100 -0.000007 -0.000012 -0.243919 0.345168 35.248000 40.985400 -0.000006 -0.000013 -0.377650 3.728390 -72.407500 11.754300 -0.000000 0.000003 -0.000181 -0.001705 -16.642000 -2.192510 6.469440 -0.000001 177.885000 12.915600 173.727000 -39.081100 -0.002282 -0.040193 0.037340 -0.046683 36.108400 -40.985400 0.000008 0.000006 5.908860 5.150240 -72.716800 -11.754300 -0.000006 -0.000006 -0.100076 -0.139237 -17.545200
